<?xml version="1.0" standalone="no"?>
<!DOCTYPE svg PUBLIC "-//W3C//DTD SVG 20010904//EN"
 "http://www.w3.org/TR/2001/REC-SVG-20010904/DTD/svg10.dtd">
<svg version="1.0" xmlns="http://www.w3.org/2000/svg"
 width="256.000000pt" height="256.000000pt" viewBox="0 0 256.000000 256.000000"
 preserveAspectRatio="xMidYMid meet">
<metadata>
Created by potrace 1.16, written by Peter Selinger 2001-2019
</metadata>
<g transform="translate(0.000000,256.000000) scale(0.100000,-0.100000)"
fill="#000000" stroke="none">
<path d="M1110 2409 c-261 -216 -573 -370 -807 -400 -59 -7 -97 -17 -105 -27
-10 -11 -13 -79 -13 -271 0 -221 3 -273 23 -380 102 -568 382 -962 842 -1186
152 -73 153 -73 250 -31 467 202 783 615 894 1166 27 135 50 355 44 435 -3 44
-6 50 -27 53 -13 2 -27 0 -32 -5 -4 -4 -13 -76 -18 -158 -41 -603 -271 -1046
-678 -1309 -78 -50 -248 -136 -271 -136 -23 0 -162 64 -245 114 -350 206 -582
552 -672 1000 -33 165 -49 364 -42 520 4 71 8 130 9 131 2 2 44 10 94 19 115
20 239 63 379 133 115 58 319 189 417 269 l57 47 98 -75 c54 -42 137 -101 186
-132 96 -63 295 -166 320 -166 9 0 21 10 28 21 15 29 5 37 -116 98 -127 63
-294 172 -411 267 -51 41 -98 74 -105 74 -8 -1 -52 -32 -99 -71z"/>
<path d="M2192 2344 c-28 -20 -29 -61 0 -91 l22 -24 -66 -66 -67 -67 -50 47
c-28 26 -54 47 -59 47 -12 0 -72 -64 -72 -76 0 -6 9 -19 20 -29 21 -19 19 -20
-193 -234 -118 -119 -220 -226 -226 -238 -15 -29 -14 -52 4 -87 14 -26 14 -31
-1 -47 -9 -10 -14 -22 -11 -27 3 -4 -57 -71 -134 -148 -76 -76 -139 -144 -139
-151 0 -30 33 -5 160 122 74 74 141 135 149 135 8 0 22 7 32 16 16 15 20 15
41 0 12 -9 38 -16 57 -16 32 0 53 18 261 225 224 224 226 226 245 205 10 -11
25 -20 34 -20 19 0 71 49 71 67 0 8 -20 35 -45 62 l-44 47 65 65 c56 55 67 62
82 51 48 -35 61 -36 87 -12 14 13 25 33 25 45 0 24 -188 215 -211 215 -8 0
-25 -7 -37 -16z m-89 -332 c114 -114 126 -130 112 -142 -14 -12 -32 2 -145
115 -100 99 -127 132 -118 142 6 7 13 13 17 13 3 0 64 -58 134 -128z m-55 -55
l72 -73 -224 -223 c-253 -252 -236 -243 -318 -163 -62 60 -64 89 -8 145 l41
40 32 -31 c18 -18 36 -32 40 -32 16 0 6 28 -18 50 -30 28 -31 41 -5 65 20 18
21 18 53 -13 31 -30 57 -41 57 -25 0 4 -15 22 -32 40 -34 35 -33 53 5 77 13 8
22 4 43 -22 15 -17 33 -32 40 -32 21 0 17 11 -18 47 -34 35 -33 53 5 77 13 8
23 4 50 -22 18 -17 36 -32 40 -32 16 0 5 26 -25 57 -31 32 -31 33 -13 53 24
27 36 25 70 -10 16 -16 32 -30 37 -30 17 0 7 25 -24 57 -31 32 -31 33 -13 53
10 11 23 20 29 20 6 0 44 -33 84 -73z"/>
<path d="M1134 2124 c-206 -165 -408 -266 -589 -294 -38 -6 -77 -18 -85 -26
-23 -23 -21 -387 4 -509 36 -182 106 -360 195 -495 89 -136 255 -278 422 -362
115 -57 136 -58 238 -8 161 78 305 198 416 345 121 160 227 467 229 660 1 68
0 70 -25 73 -32 4 -35 -2 -49 -110 -57 -430 -266 -740 -608 -904 l-74 -35 -93
45 c-108 53 -233 143 -301 219 -68 75 -156 213 -194 304 -73 176 -124 489
-106 654 l7 66 82 17 c177 38 392 149 559 288 l48 40 47 -40 c105 -88 328
-222 369 -222 26 0 48 24 41 45 -4 8 -39 31 -79 51 -88 43 -208 122 -302 198
-38 31 -72 56 -76 56 -4 0 -38 -25 -76 -56z"/>
</g>
</svg>
