<?xml version="1.0" encoding="UTF-8" standalone="no"?>
<!DOCTYPE svg PUBLIC "-//W3C//DTD SVG 1.1//EN" "http://www.w3.org/Graphics/SVG/1.1/DTD/svg11.dtd">
<svg version="1.1" xmlns="http://www.w3.org/2000/svg" xmlns:xlink="http://www.w3.org/1999/xlink" preserveAspectRatio="xMidYMid meet" viewBox="0 0 350 350" width="350" height="350"><defs><path d="M40.36 73.39C32.5 74.33 27.44 75.66 26.37 76.99C25.04 78.46 24.64 87.51 24.64 113.09C24.64 142.53 25.04 149.45 27.71 163.71C41.29 239.37 78.59 291.85 139.86 321.69C160.11 331.41 160.24 331.41 173.16 325.81C235.37 298.91 277.46 243.89 292.25 170.5C295.84 152.52 298.91 123.21 298.11 112.56C297.71 106.7 297.31 105.9 294.51 105.5C292.78 105.23 290.92 105.5 290.25 106.16C289.72 106.7 288.52 116.29 287.85 127.21C282.39 207.53 251.75 266.54 197.54 301.57C187.15 308.23 164.51 319.69 161.44 319.69C158.38 319.69 139.86 311.16 128.81 304.5C82.19 277.06 51.28 230.97 39.29 171.3C34.9 149.32 32.77 122.81 33.7 102.03C34.23 92.58 34.77 84.72 34.9 84.58C35.17 84.32 40.76 83.25 47.42 82.05C62.74 79.39 79.26 73.66 97.9 64.34C113.22 56.61 140.4 39.16 153.45 28.51C153.96 28.09 156.49 26 161.04 22.24C168.87 28.24 173.23 31.57 174.1 32.24C181.29 37.83 192.35 45.69 198.87 49.82C211.66 58.21 238.17 71.93 241.5 71.93C242.7 71.93 244.29 70.6 245.23 69.13C247.23 65.27 245.89 64.2 229.78 56.08C212.86 47.69 190.61 33.17 175.03 20.51C168.24 15.05 161.98 10.66 161.04 10.66C159.98 10.79 154.12 14.92 147.86 20.11C113.09 48.89 71.53 69.4 40.36 73.39Z" id="fipMzWc7t"></path><path d="M291.98 40.89C292.18 41.11 293.15 42.17 294.91 44.09L286.12 52.88L277.2 61.81C273.2 58.05 270.98 55.96 270.54 55.55C266.81 52.08 263.34 49.29 262.68 49.29C261.08 49.29 253.09 57.81 253.09 59.41C253.09 60.21 254.28 61.94 255.75 63.27C258.55 65.8 258.28 65.94 230.04 94.44C214.32 110.29 200.74 124.54 199.94 126.14C197.94 130.01 198.07 133.07 200.47 137.73C202.34 141.2 202.34 141.86 200.34 143.99C199.14 145.32 198.47 146.92 198.87 147.59C199.27 148.12 191.28 157.05 181.02 167.3C170.9 177.43 162.51 186.48 162.51 187.42C162.51 191.41 166.9 188.08 183.82 171.17C193.68 161.31 202.6 153.18 203.67 153.18C204.73 153.18 206.6 152.25 207.93 151.05C210.06 149.05 210.59 149.05 213.39 151.05C214.99 152.25 218.45 153.18 220.98 153.18C225.25 153.18 228.04 150.79 255.75 123.21C285.59 93.38 285.85 93.11 288.38 95.91C289.72 97.37 291.71 98.57 292.91 98.57C295.44 98.57 302.37 92.04 302.37 89.65C302.37 88.58 299.71 84.98 296.38 81.39C295.99 80.97 294.03 78.88 290.52 75.13C295.71 69.93 298.6 67.05 299.17 66.47C306.63 59.14 308.1 58.21 310.1 59.68C316.49 64.34 318.22 64.47 321.69 61.27C323.55 59.54 325.02 56.88 325.02 55.28C325.02 52.08 299.97 26.64 296.91 26.64C295.84 26.64 293.58 27.57 291.98 28.77C288.25 31.44 288.12 36.9 291.98 40.89ZM295.04 91.91C293.18 93.51 290.78 91.64 275.73 76.59C262.41 63.4 258.81 59.01 260.01 57.68C260.81 56.74 261.74 55.95 262.28 55.95C262.68 55.95 270.8 63.67 280.13 73C295.31 88.18 296.91 90.31 295.04 91.91ZM282.39 90.05C264.49 107.87 254.54 117.77 252.55 119.75C218.85 153.32 221.12 152.12 210.19 141.46C201.94 133.47 201.67 129.61 209.13 122.15C209.49 121.79 211.31 120.02 214.59 116.82C217.15 119.3 218.57 120.67 218.85 120.95C221.25 123.35 223.65 125.21 224.18 125.21C226.31 125.21 224.98 121.48 221.78 118.55C217.79 114.82 217.65 113.09 221.12 109.89C223.78 107.49 223.91 107.49 228.18 111.62C232.31 115.62 235.77 117.09 235.77 114.95C235.77 114.42 233.77 112.02 231.51 109.63C226.98 104.96 227.11 102.57 232.17 99.37C233.9 98.3 235.1 98.84 237.9 102.3C239.9 104.56 242.3 106.56 243.23 106.56C246.03 106.56 245.49 105.1 240.83 100.3C236.3 95.64 236.44 93.24 241.5 90.05C243.23 88.98 244.56 89.51 248.16 92.98C250.56 95.24 252.95 97.24 253.49 97.24C255.62 97.24 254.15 93.77 250.16 89.65C246.03 85.38 246.03 85.25 248.42 82.59C251.62 78.99 253.22 79.26 257.75 83.92C259.88 86.05 262.01 87.91 262.68 87.91C264.94 87.91 263.61 84.58 259.48 80.32C255.35 76.06 255.35 75.93 257.75 73.26C259.08 71.8 260.81 70.6 261.61 70.6C262.41 70.6 267.47 74.99 272.8 80.32C274.08 81.62 277.28 84.86 282.39 90.05Z" id="b3cRqfl22s"></path><path d="M72.6 97.24C67.53 98.04 62.34 99.64 61.27 100.7C58.21 103.77 58.48 152.25 61.81 168.5C66.6 192.74 75.93 216.46 87.78 234.44C99.64 252.55 121.75 271.47 143.99 282.66C159.31 290.25 162.11 290.38 175.69 283.72C197.14 273.33 216.32 257.35 231.11 237.77C247.23 216.46 261.34 175.56 261.61 149.85C261.74 140.8 261.61 140.53 258.28 140.13C254.02 139.6 253.62 140.4 251.75 154.78C244.16 212.06 216.32 253.35 170.77 275.2C170.11 275.51 166.82 277.06 160.91 279.86C153.48 276.26 149.35 274.27 148.52 273.87C134.14 266.81 117.49 254.82 108.43 244.69C99.37 234.7 87.65 216.32 82.59 204.2C72.86 180.76 66.07 139.06 68.47 117.09C68.53 116.5 68.84 113.57 69.4 108.29C75.95 106.94 79.59 106.18 80.32 106.03C103.9 100.97 132.54 86.18 154.78 67.67C155.21 67.31 157.34 65.54 161.18 62.34C164.93 65.54 167.02 67.31 167.44 67.67C181.42 79.39 211.13 97.24 216.59 97.24C220.05 97.24 222.98 94.04 222.05 91.24C221.52 90.18 216.85 87.11 211.53 84.45C199.8 78.72 183.82 68.2 171.3 58.08C166.24 53.95 161.71 50.62 161.18 50.62C160.64 50.62 156.11 53.95 151.05 58.08C123.61 80.06 96.71 93.51 72.6 97.24Z" id="i19wlQi3mh"></path></defs><g><g><g><use xlink:href="#fipMzWc7t" opacity="1" fill="#87042a" fill-opacity="1"></use><g><use xlink:href="#fipMzWc7t" opacity="1" fill-opacity="0" stroke="#000000" stroke-width="1" stroke-opacity="0"></use></g></g><g><use xlink:href="#b3cRqfl22s" opacity="1" fill="#000000" fill-opacity="1"></use><g><use xlink:href="#b3cRqfl22s" opacity="1" fill-opacity="0" stroke="#000000" stroke-width="1" stroke-opacity="0"></use></g></g><g><use xlink:href="#i19wlQi3mh" opacity="1" fill="#110377" fill-opacity="1"></use><g><use xlink:href="#i19wlQi3mh" opacity="1" fill-opacity="0" stroke="#000000" stroke-width="1" stroke-opacity="0"></use></g></g></g></g></svg>